<svg preserveAspectRatio="none" width="100%" height="100%" overflow="visible" style="display: block;" viewBox="0 0 25.333 18.6667" fill="none" xmlns="http://www.w3.org/2000/svg">
<g id="Group">
<path id="Vector" d="M24.1557 3.49999C23.8974 3.47015 23.636 3.5165 23.4037 3.63332L17.333 6.66665V12L23.4037 15.0333C23.6067 15.1348 23.8323 15.1827 24.059 15.1726C24.2857 15.1625 24.5061 15.0947 24.6994 14.9756C24.8926 14.8565 25.0522 14.6901 25.163 14.492C25.2739 14.294 25.3324 14.0709 25.333 13.844V4.82265C25.3326 4.4963 25.2126 4.18142 24.9956 3.93766C24.7786 3.69389 24.4798 3.53817 24.1557 3.49999Z" fill="var(--fill-0, white)"/>
<path id="Vector_2" d="M4 0C1.80667 0 0 1.80667 0 4V14.6667C0 16.86 1.80667 18.6667 4 18.6667H14.6667C16.86 18.6667 18.6667 16.86 18.6667 14.6667V4C18.6667 1.80667 16.86 0 14.6667 0H4Z" fill="var(--fill-0, white)"/>
</g>
</svg>
