<svg preserveAspectRatio="none" width="100%" height="100%" overflow="visible" style="display: block;" viewBox="0 0 24 24" fill="none" xmlns="http://www.w3.org/2000/svg">
<g id="lsicon:view-filled">
<path id="Vector" fill-rule="evenodd" clip-rule="evenodd" d="M21.75 12L22.3725 11.688V11.685L22.368 11.6805L22.359 11.6625L22.3275 11.6025L22.2075 11.3865C22.0611 11.1339 21.9055 10.8867 21.741 10.6455C21.1922 9.83993 20.5613 9.09343 19.8585 8.418C18.1695 6.798 15.57 5.145 12 5.145C8.433 5.145 5.832 6.7965 4.143 8.418C3.44019 9.09343 2.80932 9.83993 2.2605 10.6455C2.03781 10.9741 1.83155 11.3135 1.6425 11.6625L1.6335 11.6805L1.6305 11.685V11.6865C1.6305 11.6865 1.629 11.688 2.2515 12L1.629 11.6865C1.58087 11.7837 1.55583 11.8908 1.55583 11.9992C1.55583 12.1077 1.58087 12.2148 1.629 12.312L1.6275 12.315L1.632 12.3195L1.641 12.3375C1.68777 12.4312 1.7378 12.5233 1.791 12.6135C2.4369 13.7046 3.22702 14.7036 4.14 15.5835C5.8305 17.2035 8.43 18.8535 12 18.8535C15.5685 18.8535 18.1695 17.2035 19.86 15.582C20.5615 14.9058 21.1918 14.1594 21.741 13.3545C21.9513 13.0448 22.147 12.7255 22.3275 12.3975L22.359 12.3375L22.368 12.3195L22.371 12.315V12.3135C22.371 12.3135 22.3725 12.312 21.75 12ZM21.75 12L22.3725 12.3135C22.4206 12.2163 22.4457 12.1092 22.4457 12.0007C22.4457 11.8923 22.4206 11.7852 22.3725 11.688L21.75 12ZM11.91 9.696C11.2989 9.696 10.7129 9.93874 10.2808 10.3708C9.84874 10.8029 9.606 11.3889 9.606 12C9.606 12.6111 9.84874 13.1971 10.2808 13.6292C10.7129 14.0613 11.2989 14.304 11.91 14.304C12.5211 14.304 13.1071 14.0613 13.5392 13.6292C13.9713 13.1971 14.214 12.6111 14.214 12C14.214 11.3889 13.9713 10.8029 13.5392 10.3708C13.1071 9.93874 12.5211 9.696 11.91 9.696ZM8.217 12C8.217 11.0198 8.6064 10.0797 9.29953 9.38653C9.99267 8.6934 10.9328 8.304 11.913 8.304C12.8932 8.304 13.8333 8.6934 14.5265 9.38653C15.2196 10.0797 15.609 11.0198 15.609 12C15.609 12.9802 15.2196 13.9203 14.5265 14.6135C13.8333 15.3066 12.8932 15.696 11.913 15.696C10.9328 15.696 9.99267 15.3066 9.29953 14.6135C8.6064 13.9203 8.217 12.9802 8.217 12Z" fill="var(--fill-0, #808080)"/>
</g>
</svg>
