<svg preserveAspectRatio="none" width="100%" height="100%" overflow="visible" style="display: block;" viewBox="0 0 16 16" fill="none" xmlns="http://www.w3.org/2000/svg">
<g id="ep:top-right">
<path id="Vector" d="M12.0004 4H5.52539C5.39278 4 5.26561 3.94732 5.17184 3.85355C5.07807 3.75979 5.02539 3.63261 5.02539 3.5C5.02539 3.36739 5.07807 3.24021 5.17184 3.14645C5.26561 3.05268 5.39278 3 5.52539 3H12.5004C12.633 3 12.7602 3.05268 12.8539 3.14645C12.9477 3.24021 13.0004 3.36739 13.0004 3.5V10.5C13.0004 10.6326 12.9477 10.7598 12.8539 10.8536C12.7602 10.9473 12.633 11 12.5004 11C12.3678 11 12.2406 10.9473 12.1468 10.8536C12.0531 10.7598 12.0004 10.6326 12.0004 10.5V4Z" fill="var(--fill-0, white)"/>
<path id="Vector_2" d="M12.145 3.14533C12.239 3.05126 12.3666 2.99841 12.4997 2.99841C12.6327 2.99841 12.7603 3.05126 12.8543 3.14533C12.9484 3.2394 13.0013 3.36698 13.0013 3.50002C13.0013 3.63305 12.9484 3.76064 12.8543 3.8547L4.35434 12.3547C4.26027 12.4488 4.13268 12.5016 3.99965 12.5016C3.86662 12.5016 3.73903 12.4488 3.64496 12.3547C3.55089 12.2606 3.49805 12.1331 3.49805 12C3.49805 11.867 3.55089 11.7394 3.64496 11.6453L12.145 3.14533Z" fill="var(--fill-0, white)"/>
</g>
</svg>
