<svg preserveAspectRatio="none" width="100%" height="100%" overflow="visible" style="display: block;" viewBox="0 0 100.65 101" fill="none" xmlns="http://www.w3.org/2000/svg">
<g id="Group 28">
<path id="Ellipse 2" d="M50.3252 4C75.9254 4.00001 96.6504 24.8343 96.6504 50.5C96.6504 76.1657 75.9254 97 50.3252 97C24.725 97 4 76.1657 4 50.5C4 24.8343 24.725 4 50.3252 4Z" fill="var(--fill-0, #5450D8)" stroke="var(--stroke-0, white)" stroke-width="8"/>
<g id="typcn:user-add">
<path id="Vector" d="M46 52.6667C47.8413 52.6667 49.508 51.92 50.7147 50.7133C51.92 49.508 52.6667 47.8413 52.6667 46C52.6667 44.1587 51.92 42.492 50.7147 41.2867C49.508 40.08 47.8413 39.3333 46 39.3333C44.1587 39.3333 42.492 40.08 41.2853 41.2867C40.08 42.492 39.3333 44.1587 39.3333 46C39.3333 47.8413 40.08 49.508 41.2853 50.7133C41.9044 51.3326 42.6394 51.8238 43.4484 52.159C44.2573 52.4941 45.1244 52.6667 46 52.6667ZM46 62C50.6907 62 54 60.6667 54 59.3333C54 56.6667 50.8613 54 46 54C41 54 38 56.6667 38 59.3333C38 60.6667 41 62 46 62ZM62 50H59.3333V47.3333C59.3333 46.9797 59.1929 46.6406 58.9428 46.3905C58.6928 46.1405 58.3536 46 58 46C57.6464 46 57.3072 46.1405 57.0572 46.3905C56.8071 46.6406 56.6667 46.9797 56.6667 47.3333V50H54C53.6464 50 53.3072 50.1405 53.0572 50.3905C52.8071 50.6406 52.6667 50.9797 52.6667 51.3333C52.6667 51.687 52.8071 52.0261 53.0572 52.2761C53.3072 52.5262 53.6464 52.6667 54 52.6667H56.6667V55.3333C56.6667 55.687 56.8071 56.0261 57.0572 56.2761C57.3072 56.5262 57.6464 56.6667 58 56.6667C58.3536 56.6667 58.6928 56.5262 58.9428 56.2761C59.1929 56.0261 59.3333 55.687 59.3333 55.3333V52.6667H62C62.3536 52.6667 62.6928 52.5262 62.9428 52.2761C63.1929 52.0261 63.3333 51.687 63.3333 51.3333C63.3333 50.9797 63.1929 50.6406 62.9428 50.3905C62.6928 50.1405 62.3536 50 62 50Z" fill="var(--fill-0, white)"/>
</g>
</g>
</svg>
