<svg preserveAspectRatio="none" width="100%" height="100%" overflow="visible" style="display: block;" viewBox="0 0 40.0133 40.0133" fill="none" xmlns="http://www.w3.org/2000/svg">
<g id="famicons:logo-google-playstore">
<path id="Vector" d="M3.75098 4.64934V35.3627C3.75118 35.4293 3.77106 35.4944 3.80811 35.5498C3.84516 35.6052 3.89774 35.6484 3.95925 35.674C4.02076 35.6996 4.08847 35.7065 4.15388 35.6938C4.21929 35.6811 4.2795 35.6494 4.32695 35.6026L20.319 20.0068L4.32695 4.40941C4.2795 4.36263 4.21929 4.3309 4.15388 4.31819C4.08847 4.30549 4.02076 4.31238 3.95925 4.33801C3.89774 4.36363 3.84516 4.40684 3.80811 4.46223C3.77106 4.51761 3.75118 4.5827 3.75098 4.64934ZM27.0243 13.5984L6.97236 2.55098L6.95986 2.54395C6.61443 2.35639 6.2862 2.82373 6.5691 3.09569L22.2876 18.1257L27.0243 13.5984ZM6.57067 36.9179C6.2862 37.1899 6.61443 37.6572 6.96142 37.4696L6.97392 37.4626L27.0243 26.4152L22.2876 21.8863L6.57067 36.9179ZM35.1192 18.053L29.5197 14.9692L24.2547 20.0068L29.5197 25.0421L35.1192 21.9606C36.6424 21.1189 36.6424 18.8947 35.1192 18.053Z" fill="var(--fill-0, #222C44)"/>
</g>
</svg>
