<svg preserveAspectRatio="none" width="100%" height="100%" overflow="visible" style="display: block;" viewBox="0 0 332.919 61" fill="none" xmlns="http://www.w3.org/2000/svg">
<g id="svg712272324_2169" clip-path="url(#clip0_0_22)">
<path id="Vector" fill-rule="evenodd" clip-rule="evenodd" d="M0 25.9738V52.46C0 52.46 5.02476 49.7455 10.6457 46.6345V32.0738C10.6457 24.9154 13.3826 22.6066 20.7881 18.2695L30.946 12.322V0C30.946 0 16.2511 8.5888 10.1424 12.1695C2.73691 16.5066 0 18.8185 0 25.9738ZM15.4846 61V34.5138C15.4846 27.3554 18.2215 25.0466 25.627 20.7095C31.7357 17.1288 46.4306 8.54 46.4306 8.54V31.6498C46.4306 32.3147 46.4345 32.9461 46.4422 33.5531C46.5119 39.955 46.5468 43.3679 38.2354 48.3181C31.3757 52.4112 15.4846 61 15.4846 61ZM103.747 17.1319H90.585V47.0981H82.8427V17.1319H69.6808V11.346H103.755L103.747 17.1319ZM124.403 29.1702H124.469L131.921 47.0981H139.145L150.716 20.9596H142.973L135.498 39.7476L127.973 20.9596H120.95L113.344 39.6988L105.93 20.9627H98.0641L109.658 47.1011H116.878L124.403 29.1671V29.1702ZM155.373 20.9627H164.934V47.1011H157.331V26.3002H152.942L155.369 20.9627H155.373ZM156.375 12.9045C156.411 11.9277 156.928 11.0002 157.817 10.3191C158.707 9.63802 159.898 9.257 161.139 9.257C162.379 9.257 163.571 9.63802 164.46 10.3191C165.349 11.0002 165.867 11.9277 165.902 12.9045C165.902 15.07 163.924 16.5798 161.175 16.5798C158.427 16.5798 156.368 15.07 156.368 12.9045H156.375ZM189.09 20.3588C183.659 20.3588 180.276 22.3717 178.863 24.4366L178.855 20.9596H171.833V47.1164H179.44V31.9579C179.44 27.8831 182.444 25.5102 187.24 25.5102C191.781 25.5102 193.821 27.8617 193.821 31.4394V47.0981H201.432V30.683C201.432 24.5891 197.146 20.3588 189.09 20.3588ZM232.474 20.9627H239.497V45.994C239.497 52.8931 233.868 58.1299 223.64 58.1299C213.668 58.1299 209.131 53.0944 208.427 49.0165H216.037C216.738 51.0295 218.976 52.9907 223.772 52.9907C229.014 52.9907 231.886 50.4744 231.886 46.7992V42.7213C230.028 44.9844 226.513 46.7473 221.403 46.7473C211.942 46.7473 206.123 40.7572 206.123 33.5531C206.123 26.349 211.942 20.3588 221.403 20.3588C226.513 20.3588 230.287 21.9692 232.463 24.705L232.474 20.9627ZM222.94 25.6444C217.423 25.6444 213.734 28.9689 213.734 33.5469C213.734 38.128 217.443 41.4525 222.94 41.4525C228.561 41.4525 232.207 38.0762 232.207 33.55C232.207 29.0207 228.565 25.6444 222.94 25.6444ZM270.981 47.095H278.003V21.0145H270.969V24.7568C268.856 22.021 264.961 20.4075 259.782 20.4075C250.007 20.4075 244.452 26.6082 244.452 34.0654C244.452 41.5227 250.015 47.7173 259.789 47.7173C264.961 47.7173 268.867 46.0885 270.977 43.3679L270.981 47.095ZM270.718 34.0532C270.718 38.7411 267.203 42.4163 261.384 42.4163C255.632 42.4163 252.051 38.738 252.051 34.0532C252.051 29.3715 255.562 25.6963 261.384 25.6963C267.206 25.6963 270.718 29.3684 270.718 34.0532ZM284.065 14.1672H291.668V20.9627H297.87V25.7481H291.668V38.9424C291.668 41.0042 292.76 42.0137 295.377 42.0137C296.176 42.0092 296.971 41.9241 297.742 41.7606V46.9486C296.442 47.1734 295.112 47.2748 293.782 47.2506C287.007 47.2506 284.065 44.4842 284.065 39.5463V14.1672ZM316.869 42.5658C311.562 42.5658 308.175 39.9001 307.598 35.7704H332.853C332.853 35.7704 332.919 34.8615 332.919 33.9038C332.919 26.2483 326.462 20.3588 316.618 20.3588C306.773 20.3588 300.127 26.3977 300.127 34.0075C300.127 41.8124 306.646 47.702 316.68 47.702C324.41 47.702 330.291 44.0298 332.273 38.8417H324.604C323.388 41.1567 320.381 42.5658 316.869 42.5658ZM325.37 31.3357H307.73C308.496 27.7581 311.694 25.2418 316.614 25.2418C321.53 25.2418 324.732 27.7123 325.37 31.3357Z" fill="var(--fill-0, white)"/>
</g>
<defs>
<clipPath id="clip0_0_22">
<rect width="332.919" height="61" fill="white"/>
</clipPath>
</defs>
</svg>
