<svg preserveAspectRatio="none" width="100%" height="100%" overflow="visible" style="display: block;" viewBox="0 0 100.65 101" fill="none" xmlns="http://www.w3.org/2000/svg">
<g id="Group 28">
<path id="Ellipse 2" d="M50.3252 4C75.9254 4.00001 96.6504 24.8343 96.6504 50.5C96.6504 76.1657 75.9254 97 50.3252 97C24.725 97 4 76.1657 4 50.5C4 24.8343 24.725 4 50.3252 4Z" fill="var(--fill-0, #5450D8)" stroke="var(--stroke-0, white)" stroke-width="8"/>
<g id="fluent:brain-32-filled">
<path id="Vector" d="M46.375 36C47.35 36 48.255 36.303 49 36.818V63C48.1355 63.6511 47.0822 64.0022 46 64H45.69C44.6245 63.9999 43.5869 63.6594 42.7285 63.0282C41.8701 62.397 41.2357 61.508 40.918 60.491L40.749 59.947C39.4331 59.7656 38.2273 59.1141 37.3544 58.1129C36.4814 57.1117 36.0004 55.8283 36 54.5V54C35.9999 52.9747 36.2626 51.9665 36.7629 51.0716C37.2632 50.1767 37.9845 49.4249 38.858 48.888C38.0682 48.2491 37.4917 47.3848 37.2053 46.4101C36.9189 45.4354 36.9363 44.3966 37.255 43.432C37.5737 42.4674 38.1787 41.6227 38.9894 41.0105C39.8001 40.3983 40.778 40.0476 41.793 40.005C41.9428 38.896 42.4897 37.879 43.3323 37.1425C44.1749 36.406 45.2559 36.0001 46.375 36ZM53.625 36C54.7441 36.0001 55.8251 36.406 56.6677 37.1425C57.5103 37.879 58.0572 38.896 58.207 40.005C59.222 40.0476 60.1999 40.3983 61.0106 41.0105C61.8213 41.6227 62.4263 42.4674 62.745 43.432C63.0637 44.3966 63.0811 45.4354 62.7947 46.4101C62.5083 47.3848 61.9318 48.2491 61.142 48.888C62.0155 49.4249 62.7368 50.1767 63.2371 51.0716C63.7374 51.9665 64.0001 52.9747 64 54V54.5C63.9996 55.8283 63.5186 57.1117 62.6456 58.1129C61.7727 59.1141 60.5669 59.7656 59.251 59.947L59.082 60.491C58.7643 61.508 58.1299 62.397 57.2715 63.0282C56.4131 63.6594 55.3755 63.9999 54.31 64H54C52.9177 64.0019 51.8643 63.6504 51 62.999V36.819C51.771 36.2847 52.687 35.999 53.625 36Z" fill="var(--fill-0, white)"/>
</g>
</g>
</svg>
