<svg preserveAspectRatio="none" width="100%" height="100%" overflow="visible" style="display: block;" viewBox="0 0 100.65 101" fill="none" xmlns="http://www.w3.org/2000/svg">
<g id="Group 28">
<path id="Ellipse 2" d="M50.3252 4C75.9254 4.00001 96.6504 24.8343 96.6504 50.5C96.6504 76.1657 75.9254 97 50.3252 97C24.725 97 4 76.1657 4 50.5C4 24.8343 24.725 4 50.3252 4Z" fill="var(--fill-0, #5450D8)" stroke="var(--stroke-0, white)" stroke-width="8"/>
<g id="si:building-fill">
<path id="Vector" fill-rule="evenodd" clip-rule="evenodd" d="M62.2663 35.3333C62.9029 35.3333 63.5133 35.5862 63.9634 36.0363C64.4135 36.4863 64.6663 37.0968 64.6663 37.7333V39.6C64.6663 40.2365 64.4135 40.8469 63.9634 41.297C63.5133 41.7471 62.9029 42 62.2663 42H61.9997V60.1333C61.9997 61.3356 61.5221 62.4887 60.6719 63.3389C59.8217 64.189 58.6687 64.6666 57.4663 64.6666H42.533C41.9377 64.6666 41.3482 64.5494 40.7982 64.3216C40.2482 64.0937 39.7484 63.7598 39.3275 63.3389C38.4773 62.4887 37.9997 61.3356 37.9997 60.1333V42H37.733C37.0965 42 36.486 41.7471 36.036 41.297C35.5859 40.8469 35.333 40.2365 35.333 39.6V37.7333C35.333 37.0968 35.5859 36.4863 36.036 36.0363C36.486 35.5862 37.0965 35.3333 37.733 35.3333H62.2663ZM47.0663 58C46.4298 58 45.8194 58.2528 45.3693 58.7029C44.9192 59.153 44.6663 59.7635 44.6663 60.4V63.3333H47.333V60.6666H52.6663V63.3333H55.333V60.4C55.333 59.7635 55.0802 59.153 54.6301 58.7029C54.18 58.2528 53.5695 58 52.933 58H47.0663ZM44.6663 50C44.3127 50 43.9736 50.1405 43.7235 50.3905C43.4735 50.6406 43.333 50.9797 43.333 51.3333V54C43.333 54.3536 43.4735 54.6927 43.7235 54.9428C43.9736 55.1928 44.3127 55.3333 44.6663 55.3333C45.02 55.3333 45.3591 55.1928 45.6092 54.9428C45.8592 54.6927 45.9997 54.3536 45.9997 54V51.3333C45.9997 50.9797 45.8592 50.6406 45.6092 50.3905C45.3591 50.1405 45.02 50 44.6663 50ZM49.9997 50C49.6461 50 49.3069 50.1405 49.0569 50.3905C48.8068 50.6406 48.6663 50.9797 48.6663 51.3333V54C48.6663 54.3536 48.8068 54.6927 49.0569 54.9428C49.3069 55.1928 49.6461 55.3333 49.9997 55.3333C50.3533 55.3333 50.6924 55.1928 50.9425 54.9428C51.1925 54.6927 51.333 54.3536 51.333 54V51.3333C51.333 50.9797 51.1925 50.6406 50.9425 50.3905C50.6924 50.1405 50.3533 50 49.9997 50ZM55.333 50C54.9794 50 54.6402 50.1405 54.3902 50.3905C54.1402 50.6406 53.9997 50.9797 53.9997 51.3333V54C53.9997 54.3536 54.1402 54.6927 54.3902 54.9428C54.6402 55.1928 54.9794 55.3333 55.333 55.3333C55.6866 55.3333 56.0258 55.1928 56.2758 54.9428C56.5259 54.6927 56.6663 54.3536 56.6663 54V51.3333C56.6663 50.9797 56.5259 50.6406 56.2758 50.3905C56.0258 50.1405 55.6866 50 55.333 50ZM44.6663 43.3333C44.3127 43.3333 43.9736 43.4738 43.7235 43.7238C43.4735 43.9739 43.333 44.313 43.333 44.6666V47.3333C43.333 47.6869 43.4735 48.0261 43.7235 48.2761C43.9736 48.5262 44.3127 48.6666 44.6663 48.6666C45.02 48.6666 45.3591 48.5262 45.6092 48.2761C45.8592 48.0261 45.9997 47.6869 45.9997 47.3333V44.6666C45.9997 44.313 45.8592 43.9739 45.6092 43.7238C45.3591 43.4738 45.02 43.3333 44.6663 43.3333ZM49.9997 43.3333C49.6461 43.3333 49.3069 43.4738 49.0569 43.7238C48.8068 43.9739 48.6663 44.313 48.6663 44.6666V47.3333C48.6663 47.6869 48.8068 48.0261 49.0569 48.2761C49.3069 48.5262 49.6461 48.6666 49.9997 48.6666C50.3533 48.6666 50.6924 48.5262 50.9425 48.2761C51.1925 48.0261 51.333 47.6869 51.333 47.3333V44.6666C51.333 44.313 51.1925 43.9739 50.9425 43.7238C50.6924 43.4738 50.3533 43.3333 49.9997 43.3333ZM55.333 43.3333C54.9794 43.3333 54.6402 43.4738 54.3902 43.7238C54.1402 43.9739 53.9997 44.313 53.9997 44.6666V47.3333C53.9997 47.6869 54.1402 48.0261 54.3902 48.2761C54.6402 48.5262 54.9794 48.6666 55.333 48.6666C55.6866 48.6666 56.0258 48.5262 56.2758 48.2761C56.5259 48.0261 56.6663 47.6869 56.6663 47.3333V44.6666C56.6663 44.313 56.5259 43.9739 56.2758 43.7238C56.0258 43.4738 55.6866 43.3333 55.333 43.3333ZM37.9997 39.3333H61.9997V38H37.9997V39.3333Z" fill="var(--fill-0, white)"/>
</g>
</g>
</svg>
