<svg preserveAspectRatio="none" width="100%" height="100%" overflow="visible" style="display: block;" viewBox="0 0 32.5614 40.0222" fill="none" xmlns="http://www.w3.org/2000/svg">
<g id="&#232;&#139;&#185;&#230;&#158;&#156; LOGO &#231;&#153;&#189;">
<path id="&#60;Path&#62;" d="M27.1961 21.2837C27.2159 19.7497 27.6233 18.2456 28.3806 16.9114C29.1379 15.5771 30.2203 14.4561 31.5273 13.6526C30.697 12.4669 29.6017 11.4911 28.3284 10.8027C27.055 10.1143 25.6387 9.73228 24.1919 9.68701C21.1056 9.36306 18.1136 11.5338 16.5408 11.5338C14.9377 11.5338 12.5162 9.71918 9.90874 9.77282C8.22214 9.82732 6.57841 10.3178 5.13772 11.1964C3.69702 12.075 2.50849 13.3119 1.68792 14.7864C-1.86659 20.9405 0.784754 29.9849 4.18968 34.9594C5.89324 37.3953 7.88421 40.1162 10.4894 40.0197C13.0386 39.914 13.9908 38.3942 17.068 38.3942C20.1166 38.3942 21.0099 40.0197 23.6679 39.9584C26.4034 39.914 28.1269 37.5117 29.7707 35.0528C30.9947 33.3171 31.9366 31.3988 32.5614 29.369C30.9722 28.6968 29.6159 27.5717 28.6618 26.1339C27.7077 24.6961 27.198 23.0093 27.1961 21.2837V21.2837Z" fill="var(--fill-0, white)"/>
<path id="&#60;Path&#62;_2" d="M22.1739 6.41544C23.6654 4.62493 24.4002 2.32354 24.2223 0C21.9436 0.239333 19.8387 1.3284 18.3271 3.05021C17.588 3.89136 17.0219 4.86993 16.6612 5.92998C16.3005 6.99003 16.1523 8.11077 16.225 9.22814C17.3648 9.23987 18.4923 8.99283 19.5228 8.50563C20.5532 8.01842 21.4597 7.30375 22.1739 6.41544Z" fill="var(--fill-0, white)"/>
</g>
</svg>
