<svg preserveAspectRatio="none" width="100%" height="100%" overflow="visible" style="display: block;" viewBox="0 0 20 20" fill="none" xmlns="http://www.w3.org/2000/svg">
<g id="iconamoon:clock-fill">
<path id="Vector" fill-rule="evenodd" clip-rule="evenodd" d="M1.66699 9.99999C1.66699 5.39749 5.39783 1.66666 10.0003 1.66666C14.6028 1.66666 18.3337 5.39749 18.3337 9.99999C18.3337 14.6025 14.6028 18.3333 10.0003 18.3333C5.39783 18.3333 1.66699 14.6025 1.66699 9.99999ZM10.0003 6.66666C10.0003 6.44564 9.91253 6.23368 9.75625 6.0774C9.59997 5.92112 9.38801 5.83332 9.16699 5.83332C8.94598 5.83332 8.73402 5.92112 8.57774 6.0774C8.42146 6.23368 8.33366 6.44564 8.33366 6.66666V10.8333C8.33366 11.0543 8.42146 11.2663 8.57774 11.4226C8.73402 11.5789 8.94598 11.6667 9.16699 11.6667H13.3337C13.5547 11.6667 13.7666 11.5789 13.9229 11.4226C14.0792 11.2663 14.167 11.0543 14.167 10.8333C14.167 10.6123 14.0792 10.4003 13.9229 10.2441C13.7666 10.0878 13.5547 9.99999 13.3337 9.99999H10.0003V6.66666Z" fill="var(--fill-0, #5450D8)"/>
</g>
</svg>
