<svg preserveAspectRatio="none" width="100%" height="100%" overflow="visible" style="display: block;" viewBox="0 0 20 20" fill="none" xmlns="http://www.w3.org/2000/svg">
<g id="tabler:message-filled">
<path id="Vector" d="M15.0003 2.5C15.8844 2.5 16.7322 2.85119 17.3573 3.47631C17.9825 4.10143 18.3337 4.94928 18.3337 5.83333V12.5C18.3337 13.3841 17.9825 14.2319 17.3573 14.857C16.7322 15.4821 15.8844 15.8333 15.0003 15.8333H11.0637L7.09533 18.2142C6.97582 18.2859 6.84023 18.3265 6.70097 18.3322C6.56171 18.338 6.42323 18.3088 6.29821 18.2472C6.17318 18.1856 6.0656 18.0936 5.98532 17.9796C5.90504 17.8657 5.85461 17.7335 5.83866 17.595L5.83366 17.5V15.8333H5.00033C4.14512 15.8333 3.32264 15.5046 2.70298 14.9152C2.08333 14.3258 1.71392 13.5208 1.67116 12.6667L1.66699 12.5V5.83333C1.66699 4.94928 2.01818 4.10143 2.6433 3.47631C3.26842 2.85119 4.11627 2.5 5.00033 2.5H15.0003ZM11.667 10H6.66699C6.44598 10 6.23402 10.0878 6.07774 10.2441C5.92146 10.4004 5.83366 10.6123 5.83366 10.8333C5.83366 11.0543 5.92146 11.2663 6.07774 11.4226C6.23402 11.5789 6.44598 11.6667 6.66699 11.6667H11.667C11.888 11.6667 12.1 11.5789 12.2562 11.4226C12.4125 11.2663 12.5003 11.0543 12.5003 10.8333C12.5003 10.6123 12.4125 10.4004 12.2562 10.2441C12.1 10.0878 11.888 10 11.667 10ZM13.3337 6.66667H6.66699C6.44598 6.66667 6.23402 6.75446 6.07774 6.91074C5.92146 7.06703 5.83366 7.27899 5.83366 7.5C5.83366 7.72101 5.92146 7.93298 6.07774 8.08926C6.23402 8.24554 6.44598 8.33333 6.66699 8.33333H13.3337C13.5547 8.33333 13.7666 8.24554 13.9229 8.08926C14.0792 7.93298 14.167 7.72101 14.167 7.5C14.167 7.27899 14.0792 7.06703 13.9229 6.91074C13.7666 6.75446 13.5547 6.66667 13.3337 6.66667Z" fill="var(--fill-0, #5450D8)"/>
</g>
</svg>
