<svg preserveAspectRatio="none" width="100%" height="100%" overflow="visible" style="display: block;" viewBox="0 0 13.216 18.1783" fill="none" xmlns="http://www.w3.org/2000/svg">
<g id="Group">
<g id="Vector">
</g>
<path id="Vector_2" d="M12.4993 8.34167C12.6078 8.35699 12.7122 8.39357 12.8065 8.4493C12.9009 8.50502 12.9833 8.57881 13.0491 8.66643C13.1149 8.75405 13.1627 8.85379 13.1899 8.95993C13.2172 9.06607 13.2232 9.17654 13.2076 9.285C12.9987 10.73 12.3215 12.0666 11.2798 13.0896C10.2381 14.1126 8.88951 14.7656 7.44095 14.9483V15.8333C7.44095 16.0543 7.35315 16.2663 7.19687 16.4226C7.04059 16.5789 6.82863 16.6667 6.60761 16.6667C6.3866 16.6667 6.17464 16.5789 6.01836 16.4226C5.86208 16.2663 5.77428 16.0543 5.77428 15.8333V14.9483C4.32592 14.7653 2.97759 14.1122 1.93609 13.0892C0.894582 12.0662 0.217415 10.7298 0.00844673 9.285C-0.0229372 9.0662 0.0338837 8.84389 0.166409 8.66698C0.298935 8.49007 0.49631 8.37305 0.715113 8.34167C0.933917 8.31028 1.15623 8.3671 1.33314 8.49963C1.51005 8.63216 1.62706 8.82953 1.65845 9.04833C1.83079 10.238 2.4259 11.3258 3.33479 12.1125C4.24368 12.8992 5.40554 13.3322 6.60761 13.3322C7.80969 13.3322 8.97155 12.8992 9.88044 12.1125C10.7893 11.3258 11.3844 10.238 11.5568 9.04833C11.5723 8.93999 11.609 8.83576 11.6648 8.74161C11.7206 8.64745 11.7945 8.56522 11.8821 8.49959C11.9697 8.43397 12.0693 8.38625 12.1754 8.35915C12.2814 8.33205 12.3909 8.32611 12.4993 8.34167ZM6.60761 0C7.71268 0 8.77249 0.438987 9.55389 1.22039C10.3353 2.00179 10.7743 3.0616 10.7743 4.16667V8.33333C10.7743 9.4384 10.3353 10.4982 9.55389 11.2796C8.77249 12.061 7.71268 12.5 6.60761 12.5C5.50254 12.5 4.44274 12.061 3.66134 11.2796C2.87993 10.4982 2.44095 9.4384 2.44095 8.33333V4.16667C2.44095 3.0616 2.87993 2.00179 3.66134 1.22039C4.44274 0.438987 5.50254 0 6.60761 0Z" fill="var(--fill-0, #5450D8)"/>
</g>
</svg>
